<?xml version="1.0" encoding="UTF-8" standalone="no"?>
<!-- Generator: Adobe Illustrator 23.0.1, SVG Export Plug-In . SVG Version: 6.00 Build 0)  -->

<svg
   xmlns:dc="http://purl.org/dc/elements/1.1/"
   xmlns:cc="http://creativecommons.org/ns#"
   xmlns:rdf="http://www.w3.org/1999/02/22-rdf-syntax-ns#"
   xmlns:svg="http://www.w3.org/2000/svg"
   xmlns="http://www.w3.org/2000/svg"
   xmlns:sodipodi="http://sodipodi.sourceforge.net/DTD/sodipodi-0.dtd"
   xmlns:inkscape="http://www.inkscape.org/namespaces/inkscape"
   version="1.1"
   id="Layer_1"
   x="0px"
   y="0px"
   viewBox="0 0 188.27 65.070002"
   xml:space="preserve"
   inkscape:version="0.48.4 r9939"
   width="100%"
   height="100%"
   sodipodi:docname="GA_TOOLS_LOGO_CONCEPTS.svg"><metadata
     id="metadata190"><rdf:RDF><cc:Work
         rdf:about=""><dc:format>image/svg+xml</dc:format><dc:type
           rdf:resource="http://purl.org/dc/dcmitype/StillImage" /><dc:title></dc:title></cc:Work></rdf:RDF></metadata><defs
     id="defs188" /><sodipodi:namedview
     pagecolor="#ffffff"
     bordercolor="#666666"
     borderopacity="1"
     objecttolerance="10"
     gridtolerance="10"
     guidetolerance="10"
     inkscape:pageopacity="0"
     inkscape:pageshadow="2"
     inkscape:window-width="1366"
     inkscape:window-height="744"
     id="namedview186"
     showgrid="false"
     fit-margin-top="0"
     fit-margin-left="0"
     fit-margin-right="0"
     fit-margin-bottom="0"
     inkscape:zoom="2.3838384"
     inkscape:cx="94.575618"
     inkscape:cy="12.502691"
     inkscape:window-x="0"
     inkscape:window-y="24"
     inkscape:window-maximized="1"
     inkscape:current-layer="Layer_1" /><style
     type="text/css"
     id="style3">
	.st0{fill-rule:evenodd;clip-rule:evenodd;fill:#84C66E;}
	.st1{fill-rule:evenodd;clip-rule:evenodd;fill:#51B448;}
	.st2{fill-rule:evenodd;clip-rule:evenodd;fill:#2C8E43;}
	.st3{enable-background:new    ;}
	.st4{fill:#4E4E4E;}
	.st5{fill:#FFFFFF;}
	.st6{fill-rule:evenodd;clip-rule:evenodd;fill:#4E4E4E;}
	.st7{fill:#51B448;}
	.st8{fill-rule:evenodd;clip-rule:evenodd;fill:#A7A9AC;}
	.st9{fill-rule:evenodd;clip-rule:evenodd;fill:#808285;}
	.st10{fill-rule:evenodd;clip-rule:evenodd;fill:#5E6061;}
	.st11{fill:#D1D3D4;}
	.st12{font-family:'Geomanist-Bold';}
	.st13{font-size:15.1721px;}
</style><g
     id="g5"
     transform="translate(-212.16,-222.87)"><rect
       id="rect3336-6-56"
       x="212.16"
       y="222.95"
       class="st0"
       width="19.84"
       height="19.879999"
       style="fill:#84c66e;fill-rule:evenodd" /><rect
       id="rect3336-7-2"
       x="212.27"
       y="245.28999"
       class="st1"
       width="19.84"
       height="19.879999"
       style="fill:#51b448;fill-rule:evenodd" /><rect
       id="rect3336-6-5-9"
       x="212.27"
       y="268.06"
       class="st2"
       width="19.84"
       height="19.879999"
       style="fill:#2c8e43;fill-rule:evenodd" /><rect
       id="rect3336-6-6"
       x="234.97"
       y="222.87"
       class="st1"
       width="19.84"
       height="19.879999"
       style="fill:#51b448;fill-rule:evenodd" /><rect
       id="rect3336-7-1"
       x="235.08"
       y="245.2"
       class="st1"
       width="19.84"
       height="19.879999"
       style="fill:#51b448;fill-rule:evenodd" /><rect
       id="rect3336-6-5-8"
       x="235.28999"
       y="267.97"
       class="st2"
       width="19.84"
       height="19.879999"
       style="fill:#2c8e43;fill-rule:evenodd" /><rect
       id="rect3336-6-56-9"
       x="257.85999"
       y="223.16"
       class="st2"
       width="19.84"
       height="19.879999"
       style="fill:#2c8e43;fill-rule:evenodd" /><rect
       id="rect3336-7-2-2"
       x="257.97"
       y="245.49001"
       class="st2"
       width="19.84"
       height="19.879999"
       style="fill:#2c8e43;fill-rule:evenodd" /><rect
       id="rect3336-6-5-9-0"
       x="258.17999"
       y="267.97"
       class="st2"
       width="19.84"
       height="19.879999"
       style="fill:#2c8e43;fill-rule:evenodd" /><g
       class="st3"
       id="g16"
       style="enable-background:new"><path
         class="st4"
         d="m 311.97,248.19 c -2.93,2.26 -6.29,4.35 -12.66,4.35 -7.83,0 -14.32,-5.54 -14.32,-14.44 0,-7.91 5.86,-14.28 14.48,-14.28 6.53,0 9.85,3.05 11.28,4.83 l -4.27,4.43 c -0.59,-0.79 -2.97,-3.01 -6.69,-3.01 -4.95,0 -7.79,3.44 -7.79,7.91 0,5.14 3.4,8.31 7.79,8.31 3.48,0 5.46,-1.27 5.9,-1.7 v -2.45 h -4.79 v -5.66 h 11.08 v 11.71 z"
         id="path18"
         inkscape:connector-curvature="0"
         style="fill:#4e4e4e" /><path
         class="st4"
         d="m 322.69,245.82 -1.98,6.21 h -6.81 l 9.58,-27.7 h 7.12 l 9.58,27.7 h -6.81 l -1.98,-6.21 h -8.7 z m 4.35,-14.33 -2.61,8.78 h 5.22 l -2.61,-8.78 z"
         id="path20"
         inkscape:connector-curvature="0"
         style="fill:#4e4e4e" /></g><g
       class="st3"
       id="g22"
       style="enable-background:new"><path
         class="st4"
         d="m 292.93,263.68 h -6.7 v -3.81 h 17.63 v 3.81 h -6.7 v 22.85 h -4.23 v -22.85 z"
         id="path24"
         inkscape:connector-curvature="0"
         style="fill:#4e4e4e" /><path
         class="st4"
         d="m 318.82,259.38 c 7.96,0 13.71,6.06 13.71,13.83 0,7.85 -5.75,13.83 -13.75,13.83 -7.96,0 -13.71,-5.94 -13.71,-13.83 0,-7.81 5.79,-13.83 13.75,-13.83 z m 0,23.69 c 5.33,0 9.33,-4.15 9.33,-9.86 0,-5.64 -4,-9.86 -9.33,-9.86 -5.37,0 -9.33,4.23 -9.33,9.86 0,5.71 3.96,9.86 9.33,9.86 z"
         id="path26"
         inkscape:connector-curvature="0"
         style="fill:#4e4e4e" /><path
         class="st4"
         d="m 349.44,259.38 c 7.96,0 13.71,6.06 13.71,13.83 0,7.85 -5.75,13.83 -13.75,13.83 -7.96,0 -13.71,-5.94 -13.71,-13.83 0,-7.81 5.79,-13.83 13.75,-13.83 z m 0,23.69 c 5.33,0 9.33,-4.15 9.33,-9.86 0,-5.64 -4,-9.86 -9.33,-9.86 -5.37,0 -9.33,4.23 -9.33,9.86 0,5.71 3.96,9.86 9.33,9.86 z"
         id="path28"
         inkscape:connector-curvature="0"
         style="fill:#4e4e4e" /><path
         class="st4"
         d="m 367.26,259.87 h 4.23 v 22.85 h 9.33 v 3.81 h -13.56 v -26.66 z"
         id="path30"
         inkscape:connector-curvature="0"
         style="fill:#4e4e4e" /><path
         class="st4"
         d="m 386.91,279.33 c 0.72,1.9 2.29,3.77 5.22,3.77 2.4,0 4,-1.33 4,-3.58 0,-5.64 -12,-4.38 -12,-12.95 0,-4.15 3.08,-7.2 8,-7.2 5.07,0 7.24,3.58 7.88,5.45 l -3.5,1.56 c -0.61,-1.29 -1.83,-3.12 -4.46,-3.12 -2.36,0 -3.69,1.45 -3.69,3.28 0,5.26 12.07,4.3 12.07,12.68 0,4.46 -3.24,7.81 -8.49,7.81 -5.45,0 -7.81,-3.66 -8.61,-6.02 l 3.58,-1.68 z"
         id="path32"
         inkscape:connector-curvature="0"
         style="fill:#4e4e4e" /></g></g></svg>